PathFileType	4	(X/Y/Z)	6_1_53_p1_0-319.trc
DataRate	CameraRate	NumFrames	NumMarkers	Units	OrigDataRate	OrigDataStartFrame	OrigNumFrames
60.0	60.0	4	27	m	60.0	0	320
Frame#	Time	RHip			RKnee			RAnkle			RBigToe			RSmallToe			RHeel			LHip			LKnee			LAnkle			LBigToe			LSmallToe			LHeel			Neck			Head			Nose			RShoulder			RElbow			RWrist			RThumb			RIndex			RPinky			LShoulder			LElbow			LWrist			LThumb			LIndex			LPinky			
		X1	Y1	Z1	X2	Y2	Z2	X3	Y3	Z3	X4	Y4	Z4	X5	Y5	Z5	X6	Y6	Z6	X7	Y7	Z7	X8	Y8	Z8	X9	Y9	Z9	X10	Y10	Z10	X11	Y11	Z11	X12	Y12	Z12	X13	Y13	Z13	X14	Y14	Z14	X15	Y15	Z15	X16	Y16	Z16	X17	Y17	Z17	X18	Y18	Z18	X19	Y19	Z19	X20	Y20	Z20	X21	Y21	Z21	X22	Y22	Z22	X23	Y23	Z23	X24	Y24	Z24	X25	Y25	Z25	X26	Y26	Z26	X27	Y27	Z27	
0	0.0	0.27042856109823116	0.43258437018678786	0.75026606672102	0.30527507959560496	0.4416577909081038	1.1411046624548127	0.2968981258634783	0.5360639019664469	1.5086752311151344	0.27398606855200597	0.353682138053136	1.507358606092702	0.33077478376108893	0.42961381626175144	1.5416043523007232	0.2704527455034838	0.5865486632395082	1.5725510660372468	0.06298511135715322	0.44795195601951493	0.7801008091842567	0.06721905563183725	0.43467132273025916	1.1399780427625286	0.10577467853110833	0.4946417150073373	1.5103820627860922	0.10350816682310812	0.3974074467748671	1.5476095765793674	0.061985852131555365	0.3915423188792399	1.5128277625370559	0.12551319771972963	0.5735108694812543	1.578624857026469	0.12432199935999469	0.4179782589085036	0.20632619395220622	0.12696680227342297	0.3655587620057138	-0.040815868258770066	0.12622510419863986	0.3136285566575348	0.08482670845238179	0.27069936076921325	0.37399398463581807	0.25468645103168075	0.31172780232242925	0.36712418408331376	0.503501901412295	0.196265642833789	0.3174280689400368	0.6923859277844754	0.11483110641264027	0.29994898883939286	0.7464564522420359	0.11604453977634731	0.3120048176052649	0.7942622328169647	0.16086642860485711	0.2780134454817206	0.7933861613451605	-0.01574063275759567	0.4385669535788958	0.2779008865414437	-0.014425414229441637	0.3847612387542338	0.505664405795566	0.08959975840407236	0.30860644144046123	0.6602442123576429	0.1461180767430412	0.24894175153358725	0.715264010353024	0.1447182063318679	0.23547813576911256	0.7350093586550642	0.130342863577989	0.2745161564359218	0.7539462109725822
1	0.016666666666666666	0.27053303625369046	0.4325437425141593	0.7503344078659961	0.30702639726371267	0.4417035915937495	1.1500209647900081	0.29222505826299877	0.5342403459467472	1.5087300430423058	0.27402136509206654	0.3536073873955529	1.5073303275797518	0.32719004537653845	0.41734061440248765	1.5348174629590912	0.2699886549590545	0.5838528460154234	1.580963111582647	0.0628163955421272	0.44739022171650894	0.7800555776149604	0.06720565816910844	0.4346936809653902	1.139992797288313	0.10570846558174657	0.49461273827964714	1.5104971292342466	0.10007131534095255	0.3831628713643076	1.543405317760441	0.0622358799289712	0.3936390690437823	1.5231643897998235	0.12175279267519161	0.5615220038220639	1.5670351535199398	0.11977849769578788	0.43108273226063487	0.20893950036360506	0.12452864872436732	0.354645496687476	-0.04120598531730017	0.12615493308941644	0.31361359366147445	0.08493141481514248	0.27065046046662644	0.3739531467441583	0.2548127340664609	0.31164372369395577	0.3673358997752358	0.5038319493257478	0.1956516321053627	0.31865935275386803	0.6889350336519829	0.11393206363594811	0.3011624622432884	0.7455889608357068	0.11544297105786969	0.31261392212436984	0.7905249100349004	0.1605185384917778	0.2781458281345706	0.7935954386558314	-0.015322930615758264	0.43784279351754335	0.28155430277973914	-0.014683064420537328	0.3845957128081214	0.5058527861081102	0.08959028017746952	0.3086535607720269	0.6602921348040817	0.14590990703526321	0.24932779192576895	0.7194466966162425	0.14413486496454997	0.23681084926447774	0.7320440148941161	0.12535805752001195	0.28674843383846155	0.7586590637520761
2	0.03333333333333333	0.2706002700577615	0.4323997598377958	0.7502866350569791	0.30700427366253324	0.44154647718837	1.1503072638626448	0.2924227152644163	0.5517731419182115	1.5187704410205631	0.2740225571130048	0.3539043596245296	1.50754201908485	0.33080819503196046	0.4297851635173769	1.5418266243828105	0.2701782240319706	0.5847522519747465	1.5815478646045549	0.06284531451171117	0.4470539166514602	0.780026121669984	0.06720604175072009	0.4345761231475766	1.140116310499222	0.10046477588436412	0.5090762947883614	1.5195272249425322	0.10007921419191473	0.38323159105041793	1.543510525897335	0.05875138876363967	0.37858371722686657	1.5102194775657387	0.12470592986419299	0.5754825515206694	1.5746844925512913	0.11970543114952611	0.4311612354963585	0.2089860870047059	0.12420239648898543	0.35513729245406606	-0.04460567298459763	0.12339646953627288	0.30278982929085274	0.08404837363713587	0.27394110077482425	0.38507320993083166	0.25255123979756255	0.3117709859320039	0.36730522442974056	0.49976946407397727	0.19617383927258533	0.31748515897585583	0.6925335936438904	0.11394272353703398	0.3014246162508002	0.7452882264297234	0.11634015372383766	0.3139938378301603	0.7951772457577695	0.16054369922280584	0.2780694244550702	0.7935892400141172	-0.015326379935511855	0.4378194666211843	0.2813567358264645	-0.01473491395420789	0.38471515676856644	0.5058994464911205	0.08583479261964821	0.306645358644106	0.6601319967054151	0.14549934842542245	0.24977134538250667	0.7191768762272748	0.1438053012792012	0.23706023752984273	0.7318917092515023	0.12542129024068716	0.2867114969618104	0.7586513180231728
3	0.05	0.2705802227198328	0.4324761117964883	0.7501235967775294	0.3058176884991063	0.4400703859023362	1.1452292537936062	0.29237105087747634	0.5518936844314016	1.5187147157235517	0.27401993992236445	0.3537725615787242	1.5073084014301026	0.32705784947060607	0.4173889111568551	1.5346074075362617	0.26962928317820256	0.5871060142311324	1.5782994791407488	0.0629344220908937	0.44751086013974745	0.7800606692292461	0.06725176693460011	0.4348806215942682	1.1401206601999425	0.1056698141987033	0.4948018109243033	1.5106279063273529	0.10008031886773235	0.3833591067342763	1.5434970390938583	0.062208099332675314	0.3937738037739458	1.5231029416695205	0.1246862859363711	0.5755223476904634	1.5748757953375694	0.11967316478144178	0.4312258102992403	0.2054700719411261	0.12414740448092451	0.3552616786657625	-0.04459515769794919	0.12325390901155453	0.30290059701098737	0.0840024103128155	0.27063243877821136	0.3740645453916635	0.25095835459680493	0.31176841657947124	0.367116831641782	0.4997310138409004	0.19621689953577712	0.3174544678810764	0.6926055734132497	0.11386407743560209	0.3014013086120331	0.7454149579321231	0.11625090851282123	0.31414796779555154	0.7954077149921186	0.1613935450050341	0.2794648298483822	0.7978749086724046	-0.015375058688049809	0.4378523504174374	0.28143666146092766	-0.01474516758968492	0.3847264461185907	0.5058791123606868	0.08540513429648676	0.30657549624135966	0.663902236164505	0.14199473458568587	0.23938702261821712	0.7128994037675359	0.1436217996953881	0.23677412546755075	0.7317030838570373	0.12532354028477402	0.28677793934807	0.758588704138573
